#!OML:ASF H:\Terrain\Patient Classification 1\Walking\steve\steve.ASF
:FULLY-SPECIFIED
:DEGREES
262
root 7.14365 16.2861 24.3499 6.76039 6.69496 4.30344
lowerback -0.841547 -0.630869 -6.15507
upperback -2.99867 -0.865749 0.945204
thorax -2.52402 -0.274323 4.44318
lowerneck -8.88966 0.227461 -3.40801
upperneck 9.2217 0.85727 -0.844611
head 4.67059 0.251883 0.384186
rclavicle 1.05915e-014 -1.35174e-014
rhumerus -76.3036 -27.4046 -46.083
rradius 15.8155
rwrist 19.5125
rhand -12.1796 -42.4153
rfingers 7.12502
rthumb 13.884 -1151.93
lclavicle 1.05915e-014 -1.35174e-014
lhumerus -7.19676 -14.6116 88.3703
lradius 54.3404
lwrist 25.691
lhand -25.2054 -15.2667
lfingers 7.12502
lthumb 1.31319 14.709
rfemur -43.1657 3.1677 14.5899
rtibia 25.1859
rfoot -19.4605 0.782133
rtoes -15.0307
lfemur 20.0533 -1.9407 -27.1605
ltibia 3.18055e-014
lfoot -4.19358 -8.61789
ltoes 0.299952
263
root 7.14918 16.2453 24.592 6.56461 6.67415 4.35955
lowerback -0.588261 -0.611481 -5.92817
upperback -3.04876 -0.855294 0.96697
thorax -2.72145 -0.266627 4.34154
lowerneck -8.82267 0.353823 -3.1058
upperneck 9.21511 1.04717 -1.42252
head 4.65538 0.325638 0.145341
rclavicle -4.12789e-015 -1.11319e-014
rhumerus -76.7806 -27.0646 -45.478
rradius 15.654
rwrist 20.2816
rhand -11.3912 -41.8949
rfingers 7.12502
rthumb 14.6436 -1151.36
lclavicle -4.12789e-015 -1.11319e-014
lhumerus -7.59174 -14.5307 88.392
lradius 55.4556
lwrist 25.5913
lhand -25.2055 -15.9373
lfingers 7.12502
lthumb 1.31313 14.0384
rfemur -42.7372 3.09247 14.8183
rtibia 25.9062
rfoot -18.3702 1.86728
rtoes -14.3521
lfemur 21.1788 -2.01683 -27.1313
ltibia -2.54444e-014
lfoot -3.28191 -8.5137
ltoes -1.23921
264
root 7.16055 16.2104 24.8376 6.2675 6.71207 4.29886
lowerback -0.0378362 -0.556187 -5.37351
upperback -3.25842 -0.81283 0.933985
thorax -3.25923 -0.239084 4.00285
lowerneck -8.49061 0.382857 -3.13219
upperneck 9.24854 1.09439 -1.5835
head 4.59981 0.340694 0.0969699
rclavicle -1.44305e-014 -7.15625e-015
rhumerus -77.599 -26.7112 -44.5884
rradius 15.6244
rwrist 21.0684
rhand -10.5637 -41.3769
rfingers 7.12502
rthumb 15.4407 -1150.78
lclavicle -1.44305e-014 -7.15625e-015
lhumerus -8.27482 -14.883 88.401
lradius 56.2955
lwrist 25.851
lhand -25.381 -16.8487
lfingers 7.12502
lthumb 1.14363 13.128
rfemur -42.1489 2.44328 15.5366
rtibia 26.7893
rfoot -16.0461 2.81348
rtoes -14.0801
lfemur 22.3534 -2.12846 -26.9874
ltibia -2.8625e-014
lfoot -2.04869 -8.3648
ltoes -3.90603
265
root 7.16028 16.1919 25.0839 6.08918 6.69031 3.93826
lowerback 0.145487 -0.56094 -4.80477
upperback -3.26882 -0.813415 1.10914
thorax -3.3752 -0.249366 3.86685
lowerneck -8.75523 0.516765 -3.26332
upperneck 9.48442 1.31526 -1.63347
head 4.73897 0.435964 0.119812
rclavicle -6.75868e-015 3.18055e-015
rhumerus -77.5282 -26.3394 -44.671
rradius 15.5852
rwrist 21.0548
rhand -10.199 -40.9118
rfingers 7.12502
rthumb 15.792 -1150.29
lclavicle -6.75868e-015 3.18055e-015
lhumerus -8.61058 -14.8813 88.3729
lradius 57.1146
lwrist 26.0111
lhand -25.7959 -17.6252
lfingers 7.12502
lthumb 0.742885 12.3533
rfemur -41.89 2.35583 16.3328
rtibia 27.8421
rfoot -13.2085 2.47825
rtoes -13.0789
lfemur 21.6712 -2.18638 -26.4531
ltibia 3.17458
lfoot -1.79084 -8.73294
ltoes -8.23134
266
root 7.15214 16.1935 25.3337 6.12777 6.31948 3.51484
lowerback -0.227686 -0.49951 -4.35266
upperback -3.14199 -0.696848 1.36696
thorax -3.04428 -0.211021 3.8706
lowerneck -8.94554 0.662182 -3.32071
upperneck 9.31817 1.54985 -1.88131
head 4.71697 0.537625 0.0624024
rclavicle 3.16813e-016 -1.82882e-014
rhumerus -77.0547 -26.1248 -44.9295
rradius 15.3329
rwrist 21.3363
rhand -10.5231 -40.2866
rfingers 7.12502
rthumb 15.4798 -1149.69
lclavicle 3.16813e-016 -1.82882e-014
lhumerus -8.85638 -14.4183 88.4441
lradius 58.0384
lwrist 25.8679
lhand -26.0319 -17.6734
lfingers 7.12502
lthumb 0.514904 12.3057
rfemur -42.1126 3.02379 16.8464
rtibia 28.9307
rfoot -10.6992 1.39123
rtoes -10.2093
lfemur 20.0005 -1.92964 -25.803
ltibia 7.6929
lfoot -1.2865 -9.3074
ltoes -6.95156
267
root 7.15137 16.1943 25.5851 6.1387 5.80478 3.00948
lowerback -0.477133 -0.303275 -3.62783
upperback -3.21007 -0.410122 1.57112
thorax -3.00249 -0.0836853 3.66529
lowerneck -8.58841 0.639453 -3.57475
upperneck 9.0189 1.54082 -2.01087
head 4.53367 0.525804 0.0606888
rclavicle -1.39025e-014 1.66979e-014
rhumerus -76.9782 -25.7469 -45.2315
rradius 15.2561
rwrist 21.4737
rhand -11.125 -39.9011
rfingers 7.12502
rthumb 14.9001 -1149.35
lclavicle -1.39025e-014 1.66979e-014
lhumerus -9.59892 -14.1029 88.7222
lradius 58.8895
lwrist 25.8362
lhand -26.0129 -17.7454
lfingers 7.12502
lthumb 0.533247 12.2337
rfemur -42.308 3.76551 17.351
rtibia 30.0907
rfoot -8.58149 0.715775
rtoes -9.41049
lfemur 18.8339 -1.50049 -25.1484
ltibia 11.4072
lfoot -0.655223 -9.70111
ltoes -5.21761
268
root 7.15687 16.1827 25.8292 6.15147 5.46961 2.39952
lowerback -0.44815 -0.197122 -2.74614
upperback -3.40175 -0.252049 1.77897
thorax -3.23095 -0.0180768 3.38128
lowerneck -8.3411 0.695228 -3.52368
upperneck 9.01492 1.63326 -2.34927
head 4.48476 0.557488 -0.0586653
rclavicle -9.88954e-015 1.03368e-014
rhumerus -76.9748 -25.4377 -45.1239
rradius 15.0705
rwrist 22.0104
rhand -11.8239 -39.337
rfingers 7.12502
rthumb 14.2267 -1148.83
lclavicle -9.88954e-015 1.03368e-014
lhumerus -10.6074 -13.7171 88.9111
lradius 59.6051
lwrist 26.0339
lhand -25.8771 -18.0484
lfingers 7.12502
lthumb 0.664434 11.9303
rfemur -42.3958 4.40524 17.9091
rtibia 31.4172
rfoot -7.21903 0.400031
rtoes -3.34668
lfemur 17.689 -1.79124 -24.6328
ltibia 14.8997
lfoot -0.207818 -9.18305
ltoes -5.65147
269
root 7.1654 16.1686 26.0768 6.06995 5.06742 1.95875
lowerback -0.601366 -0.153349 -2.13306
upperback -3.31891 -0.176693 2.01783
thorax -3.0638 0.00219345 3.27976
lowerneck -8.45665 0.839906 -3.17711
upperneck 8.95085 1.86854 -3.11585
head 4.49671 0.646035 -0.364618
rclavicle 6.27414e-015 -3.81667e-014
rhumerus -76.7646 -25.6623 -44.0547
rradius 14.6931
rwrist 23.7809
rhand -12.1179 -38.7483
rfingers 7.12502
rthumb 13.9434 -1148.26
lclavicle 6.27414e-015 -3.81667e-014
lhumerus -11.3479 -13.0751 89.03
lradius 60.2378
lwrist 26.2217
lhand -25.8888 -17.9084
lfingers 7.12502
lthumb 0.653119 12.0704
rfemur -42.3674 5.04608 18.3346
rtibia 32.9592
rfoot -6.8901 0.210768
rtoes 0.954032
lfemur 16.4603 -1.88731 -24.2402
ltibia 18.5299
lfoot 1.41463 -8.13204
ltoes -2.4566
270
root 7.18214 16.1533 26.3228 5.82492 4.65982 1.6707
lowerback -0.79652 -0.0665919 -1.5287
upperback -3.01038 -0.0517004 2.17772
thorax -2.64263 0.0416251 3.09942
lowerneck -8.74441 1.00894 -2.75352
upperneck 8.76708 2.14227 -4.01527
head 4.50867 0.749891 -0.726357
rclavicle 1.20265e-014 7.15625e-015
rhumerus -76.2335 -26.1931 -43.2794
rradius 14.5239
rwrist 25.0893
rhand -11.8608 -39.1374
rfingers 7.12502
rthumb 14.1911 -1148.63
lclavicle 1.20265e-014 7.15625e-015
lhumerus -11.8852 -12.4188 89.2804
lradius 60.7812
lwrist 26.2274
lhand -26.0913 -17.6307
lfingers 7.12502
lthumb 0.457539 12.3486
rfemur -42.2262 5.19205 18.8632
rtibia 34.7494
rfoot -7.05981 0.251549
rtoes -4.31673
lfemur 15.339 -1.71849 -23.9766
ltibia 22.2472
lfoot 3.87301 -6.2913
ltoes 3.89773
271
root 7.20099 16.1425 26.546 5.88494 4.71219 1.64506
lowerback -0.603554 -0.120604 -0.940893
upperback -3.11781 -0.117905 2.15111
thorax -2.85769 -0.00300589 2.743
lowerneck -9.26047 0.999215 -3.07174
upperneck 9.43504 2.18699 -3.72416
head 4.35881 0.749845 -0.5061
rclavicle 3.72721e-017 7.95139e-015
rhumerus -75.7478 -26.4389 -42.9713
rradius 14.5216
rwrist 25.5471
rhand -11.0183 -39.9658
rfingers 7.12502
rthumb 15.0028 -1149.4
lclavicle 3.72721e-017 7.95139e-015
lhumerus -13.1052 -11.7753 89.5784
lradius 61.5376
lwrist 26.2756
lhand -26.0828 -17.3559
lfingers 7.12502
lthumb 0.465815 12.6234
rfemur -42.4703 4.40761 19.2863
rtibia 36.6472
rfoot -7.39648 1.11224
rtoes -6.05403
lfemur 13.7696 -1.75826 -23.8885
ltibia 25.7562
lfoot 6.61958 -3.51073
ltoes 12.2053
272
root 7.21326 16.1391 26.7623 6.01972 4.68039 1.97793
lowerback 0.357552 -0.126671 -0.721648
upperback -3.81324 -0.115133 1.98668
thorax -4.12245 0.00672985 2.45932
lowerneck -8.83858 1.2501 -3.22994
upperneck 9.96191 2.52432 -3.493
head 4.4468 0.915118 -0.389035
rclavicle -1.26228e-014 1.43125e-014
rhumerus -76.1058 -26.2775 -42.0059
rradius 14.5424
rwrist 26.3937
rhand -10.1318 -40.4503
rfingers 7.12502
rthumb 15.8567 -1149.82
lclavicle -1.26228e-014 1.43125e-014
lhumerus -15.3603 -11.5436 89.9224
lradius 62.2818
lwrist 26.7162
lhand -26.0013 -17.1108
lfingers 7.12502
lthumb 0.544479 12.8682
rfemur -42.7484 3.60965 19.3393
rtibia 38.4148
rfoot -7.36584 2.65729
rtoes -2.70091
lfemur 12.0002 -1.67621 -24.1381
ltibia 29.1246
lfoot 9.25347 -0.990909
ltoes 15.4695
273
root 7.22559 16.1408 26.9953 5.69141 3.87333 1.82433
lowerback 0.554974 0.102062 -0.436667
upperback -3.59425 0.2012 2.14209
thorax -4.02146 0.155247 2.44659
lowerneck -9.49895 1.18519 -3.25652
upperneck 10.3676 2.54022 -3.89212
head 4.68867 0.878581 -0.501114
rclavicle 1.09829e-014 1.35174e-014
rhumerus -75.6916 -27.1489 -40.6137
rradius 14.3938
rwrist 28.0869
rhand -10.1183 -40.4475
rfingers 7.12502
rthumb 15.8697 -1149.82
lclavicle 1.09829e-014 1.35174e-014
lhumerus -16.3335 -11.3649 90.1634
lradius 62.4955
lwrist 27.3596
lhand -26.3099 -17.2343
lfingers 7.12502
lthumb 0.246424 12.7453
rfemur -42.372 3.84163 19.8853
rtibia 39.8501
rfoot -7.10077 3.79423
rtoes -1.33789
lfemur 10.7125 -0.937193 -23.9868
ltibia 32.5543
lfoot 11.8152 0.641536
ltoes 14.4051
274
root 7.23535 16.1494 27.2323 5.17412 3.02926 1.05719
lowerback 0.984719 0.355256 0.394334
upperback -3.45849 0.578082 2.46069
thorax -4.13688 0.32122 2.2919
lowerneck -9.52691 1.08059 -3.30835
upperneck 10.368 2.45729 -4.29528
head 4.69927 0.810244 -0.62263
rclavicle -6.93262e-015 -7.15625e-015
rhumerus -75.0387 -27.4686 -40.2638
rradius 14.3543
rwrist 28.8025
rhand -10.5746 -40.1029
rfingers 7.12502
rthumb 15.4303 -1149.51
lclavicle -6.93262e-015 -7.15625e-015
lhumerus -17.5928 -11.1497 90.5164
lradius 62.5934
lwrist 28.0006
lhand -26.7623 -17.552
lfingers 7.12502
lthumb -0.190486 12.4276
rfemur -41.4937 4.44521 21.053
rtibia 40.8841
rfoot -7.24872 4.19285
rtoes -0.806222
lfemur 9.59061 -0.23192 -23.1375
ltibia 36.0576
lfoot 14.3273 1.9185
ltoes 13.0292
275
root 7.23601 16.165 27.4599 4.98093 2.88572 0.493992
lowerback -1.83103 0.440756 1.13356
upperback -1.13152 0.57066 2.61753
thorax -0.148491 0.288592 2.05656
lowerneck -11.1118 1.16687 -3.00868
upperneck 8.58229 2.55686 -4.67827
head 4.42128 0.876053 -0.777202
rclavicle -1.20513e-014 -1.19271e-014
rhumerus -72.3609 -31.2531 -39.9745
rradius 13.9734
rwrist 30.8395
rhand -11.3217 -39.6878
rfingers 7.12502
rthumb 14.7106 -1149.15
lclavicle -1.20513e-014 -1.19271e-014
lhumerus -14.7716 -11.1214 90.0504
lradius 62.0375
lwrist 28.636
lhand -26.9146 -17.4298
lfingers 7.12502
lthumb -0.337593 12.5497
rfemur -40.6308 4.52078 21.9477
rtibia 41.55
rfoot -7.84044 4.35117
rtoes -0.356332
lfemur 8.02712 -0.365821 -22.4719
ltibia 39.5696
lfoot 16.8572 3.54163
ltoes 10.6157
